<svg xmlns="http://www.w3.org/2000/svg" xml:space="preserve" width="120.65mm" height="120.65mm" version="1.1" style="shape-rendering:geometricPrecision; text-rendering:geometricPrecision; image-rendering:optimizeQuality; fill-rule:evenodd; clip-rule:evenodd"
viewBox="0 0 2735 2735"
 xmlns:xlink="http://www.w3.org/1999/xlink">
 <!-- Created by: Treedbox, treedbox.com.br -->
 <defs>
  <style type="text/css">
   <![CDATA[
    .fil0 {fill:none}
    .fil4 {fill:#FEFEFE}
    .fil1 {fill:#FFCC29}
    .fil3 {fill:#00A859}
    .fil2 {fill:#2957A4}
   ]]>
  </style>
 </defs>
 <g id="geo">
  <rect class="fil0" transform="matrix(2.64845E-014 -1 1 2.64845E-014 0.000105441 2734.98)" width="2735" height="2735"/>
  <g id="_651536784">
   <path class="fil1" d="M1364 1564l274 279c-77,86 -173,136 -278,136 -103,0 -199,-50 -275,-132l279 -283z"/>
   <polygon class="fil2" points="1022,2039 1008,2039 996,2040 984,2040 972,2041 960,2043 949,2044 938,2045 927,2047 916,2049 906,2051 895,2053 884,2055 873,2057 862,2059 850,2061 839,2063 826,2066 814,2067 801,2069 787,2071 773,2073 758,2074 742,2076 726,2077 709,2078 691,2078 672,2079 651,2079 630,2078 608,2078 585,2077 575,2076 565,2073 557,2070 551,2066 545,2061 541,2056 539,2051 538,2046 538,2041 541,2035 545,2029 552,2024 561,2018 573,2013 589,2009 607,2005 693,1992 703,1992 713,1993 723,1993 734,1992 744,1992 754,1992 765,1991 775,1990 785,1989 796,1988 806,1987 817,1986 827,1985 837,1983 848,1982 858,1980 869,1978 879,1977 890,1975 901,1973 911,1971 922,1970 932,1968 946,1965 964,1962 975,1960 986,1958 996,1956 1007,1954 1018,1953 1029,1951 1035,1950 1041,1950 1047,1949 1054,1949 1060,1949 1067,1949 1073,1949 1080,1949 1086,1949 1092,1950 1098,1950 1104,1951 1109,1952 1114,1954 1119,1955 1124,1957 1128,1959 1132,1961 1135,1963 1138,1966 1140,1968 1142,1971 1144,1975 1145,1978 1146,1982 1146,1986 1145,1991 1144,1996 1143,2002 1140,2008 1137,2014 1132,2024 1140,2040 1140,2043 1140,2043 1132,2042 1125,2042 1118,2041 1111,2041 1104,2040 1097,2040 1090,2040 1083,2039 1076,2039 1069,2039 1062,2039 1055,2039 1049,2039 1042,2039 1035,2039 "/>
   <polygon class="fil2" points="1590,2007 1586,1997 1585,1989 1586,1982 1589,1976 1593,1971 1599,1967 1607,1963 1615,1960 1624,1958 1633,1956 1642,1955 1651,1954 1659,1953 1666,1953 1671,1953 1679,1952 1686,1952 1694,1952 1701,1952 1708,1952 1716,1952 1723,1952 1731,1952 1739,1952 1746,1952 1754,1953 1762,1953 1769,1953 1777,1954 1785,1955 1792,1955 1800,1956 1808,1957 1816,1958 1824,1959 1832,1960 1839,1961 1847,1962 1855,1963 1863,1964 1871,1966 1879,1967 1887,1968 1895,1970 1903,1971 1912,1973 1920,1974 1926,1976 1933,1977 1939,1978 1946,1979 1952,1980 1958,1981 1965,1982 1971,1982 1977,1983 1984,1984 1990,1984 1996,1985 2003,1985 2009,1985 2015,1986 2021,1986 2040,1988 2058,1991 2075,1994 2090,1998 2105,2002 2118,2006 2130,2010 2142,2015 2152,2019 2161,2024 2168,2029 2175,2034 2180,2039 2185,2043 2188,2048 2190,2052 2192,2056 2192,2059 2191,2063 2190,2066 2188,2069 2185,2072 2180,2074 2175,2077 2168,2079 2161,2081 2152,2082 2142,2083 2131,2083 2119,2083 2105,2082 2091,2080 2078,2079 2066,2077 2053,2075 2040,2073 2027,2071 2015,2069 2002,2067 1989,2065 1976,2063 1963,2061 1950,2059 1937,2057 1924,2055 1911,2053 1898,2051 1885,2049 1872,2047 1859,2045 1846,2044 1833,2042 1820,2041 1807,2040 1794,2039 1781,2038 1768,2037 1755,2036 1742,2036 1728,2036 1715,2036 1702,2036 1689,2036 1677,2037 1671,2037 1665,2038 1658,2038 1652,2038 1645,2039 1639,2039 1632,2040 1626,2040 1619,2040 1613,2040 1608,2041 1602,2041 1598,2041 1594,2040 1593,2040 1598,2020 "/>
   <polygon class="fil2" points="1804,489 1806,493 1806,494 1806,495 1804,497 1800,499 1795,500 1788,502 1781,504 1773,505 1764,506 1756,507 1747,508 1739,509 1735,509 1731,510 1725,511 1719,512 1712,514 1705,516 1698,518 1691,520 1685,524 1679,527 1674,532 1671,537 1669,544 1669,551 1671,557 1667,556 1662,554 1659,552 1657,548 1655,544 1654,538 1654,530 1656,525 1659,520 1662,515 1666,510 1670,505 1675,501 1680,497 1688,492 1687,482 1687,476 1689,470 1691,464 1694,458 1699,452 1704,446 1709,442 1780,474 1791,480 1799,485 "/>
   <polygon class="fil2" points="1057,552 1057,552 1058,543 1057,536 1055,529 1051,524 1046,520 1040,517 1034,515 1027,513 1019,512 1012,512 1004,512 996,511 988,511 980,511 972,511 961,510 952,509 944,507 938,504 934,501 931,498 929,496 929,492 930,489 933,484 937,479 944,473 952,467 963,461 976,455 991,448 1017,439 1023,441 1028,445 1033,448 1036,451 1039,454 1041,457 1043,460 1044,464 1044,467 1045,470 1045,474 1046,477 1046,481 1047,485 1047,489 1049,493 1051,497 1054,502 1057,505 1060,508 1063,511 1065,514 1068,517 1070,520 1073,525 1075,530 1076,534 1075,538 1072,542 1068,547 1060,551 "/>
   <polygon class="fil2" points="1272,669 1360,605 1447,667 1414,564 1499,495 1392,495 1355,396 1324,494 1217,494 1303,563 "/>
   <polygon class="fil1" points="1360,586 1419,629 1397,559 1457,510 1382,510 1356,441 1335,509 1260,509 1320,557 1299,631 "/>
   <path class="fil1" d="M1364 939l20 245 41 -78 -3 88 61 -64 -26 84 175 -159 -147 188 84 -26 -64 60 88 -2 -78 41 209 20 -158 15c-64,-14 -131,-22 -200,-22 -70,0 -137,8 -201,23l-163 -16 210 -20 -78 -41 88 2 -64 -60 84 26 -147 -188 175 159 -25 -84 60 64 -3 -88 41 78 21 -245z"/>
   <path class="fil2" d="M988 1703l376 -375 369 370c-26,55 -58,104 -95,145l-274 -279 -279 283c-38,-41 -70,-90 -97,-144z"/>
   <path class="fil3" d="M585 1663c-3,39 8,78 34,117 19,4 36,6 53,7 -40,-37 -68,-78 -87,-124zm326 55c8,17 7,34 1,52 8,0 17,-1 26,-1 2,-22 -9,-39 -27,-51zm-41 -86c5,42 -9,91 -34,145 18,-2 37,-4 56,-5 16,-55 6,-101 -22,-140zm-64 149c31,-69 68,-144 39,-267 -26,120 -53,147 -87,214 -26,-67 -169,-117 -179,-268 -27,207 68,262 142,328 27,-1 55,-4 85,-7zm-19 -744c52,-52 135,-93 165,-277 -73,66 -169,92 -165,277zm-3 -149c-147,109 -54,260 -46,308 48,-53 133,-80 166,-215 4,-18 7,-35 9,-50 -8,22 -18,46 -29,61 -43,43 -86,69 -109,82 -9,-74 -19,-147 9,-186zm-55 455c39,-88 136,-108 147,-265 -39,104 -94,90 -139,160 -8,-59 -81,-94 -48,-230 -102,159 -33,217 40,335zm11 183c32,-90 123,-178 121,-335 -29,106 -96,127 -131,204 -12,-48 -104,-95 -110,-211 -54,134 38,231 120,342zm10 164c22,-96 128,-146 87,-315 -25,120 -66,119 -99,186 -26,-66 -138,-95 -148,-245 -36,270 100,259 160,374zm-133 173c12,25 25,46 39,65 12,-7 22,-13 31,-21 -14,-10 -28,-21 -43,-34 -9,-3 -18,-7 -27,-10zm96 125c36,31 76,55 117,82 49,-8 87,-18 131,-23 7,-36 11,-65 12,-92 -21,4 -43,8 -64,12l-11 55c-28,-17 -53,-30 -77,-41 -37,4 -73,7 -108,7zm-31 34l39 60c16,-1 30,-2 43,-3l-82 -57zm342 -75c4,29 0,62 -12,97 7,0 15,-1 23,0 12,0 23,0 34,0 5,-42 0,-76 -14,-100 -9,0 -18,1 -27,2 -1,0 -3,1 -4,1zm80 45c2,21 2,39 2,54 14,1 28,1 41,2 0,-3 -1,-6 -2,-9 -1,0 -1,0 -1,0l-7 -15c0,-1 0,-1 1,-1 -8,-13 -19,-23 -34,-31z"/>
   <path class="fil3" d="M1972 2067c28,-23 56,-46 77,-71 -6,27 -21,51 -39,77 -13,-1 -25,-4 -38,-6zm-392 -18c1,-2 2,-5 3,-8 1,1 2,2 4,3l5 -22c8,-14 19,-26 34,-39 -6,22 -8,42 -6,62 -13,2 -27,2 -40,4zm66 -5c-1,-27 6,-59 23,-96 1,0 1,0 2,0 12,-1 24,-1 35,-1 -8,31 -6,62 1,94 -10,0 -20,0 -30,1 -11,0 -21,1 -31,2zm101 -97c2,39 7,70 11,94 55,3 109,10 163,18 34,-21 70,-47 106,-77 -2,-1 -4,-1 -5,-1 -33,-1 -67,-5 -101,-11 -13,-3 -25,-5 -38,-7 -19,11 -38,26 -59,45 -5,-19 -9,-37 -11,-55 -23,-3 -45,-5 -66,-6zm344 -83c-7,14 -22,28 -44,43 8,7 19,14 32,20 11,-17 22,-40 32,-71 -6,3 -13,6 -20,8zm41 -205c3,34 -5,68 -24,102 -14,2 -29,3 -44,4 31,-32 53,-67 68,-106zm-226 107c-29,-66 -61,-139 -33,-256 25,120 52,147 86,214 26,-66 170,-117 179,-267 25,188 -52,250 -121,309 -36,1 -72,1 -111,0zm-59 -137c-5,39 8,86 31,137 -18,0 -36,0 -54,0 -14,-54 -4,-99 23,-137zm-41 86c-8,16 -7,33 0,51 -5,0 -9,0 -13,0 -4,0 -10,0 -14,0 -2,-23 9,-39 27,-51zm124 -681c-52,-52 -135,-94 -165,-277 73,65 169,92 165,277zm3 -149c148,108 54,260 46,308 -47,-53 -133,-81 -166,-215 -4,-18 -7,-35 -9,-50 8,21 18,45 29,60 43,43 87,69 110,83 8,-75 18,-148 -10,-186zm56 454c-40,-87 -137,-108 -148,-264 39,103 94,90 139,160 8,-60 81,-94 48,-230 102,159 33,216 -39,334zm-12 184c-32,-90 -123,-179 -121,-336 29,107 96,128 131,205 13,-49 104,-95 110,-211 54,134 -38,230 -120,342zm-10 164c-22,-96 -127,-146 -87,-316 26,121 66,120 99,187 26,-66 139,-95 148,-245 36,270 -100,258 -160,374z"/>
   <path class="fil2" d="M1360 688c250,0 454,290 454,646 0,38 -3,76 -8,112 -73,-43 -157,-77 -247,-96 2,0 4,1 7,1l158 -15 -209 -20 78 -41 -88 2 64 -60 -84 26 147 -188 -175 159 26 -84 -61 64 3 -88 -41 78 -20 -245 -21 245 -41 -78 3 88 -60 -64 25 84 -175 -159 147 188 -84 -26 64 60 -88 -2 78 41 -210 20 162 15c-91,21 -176,56 -251,102 -5,-38 -7,-78 -7,-119 0,-356 204,-646 454,-646zm21 641c-2,0 -5,0 -7,0 2,0 5,0 7,0zm-7 0c-3,0 -5,0 -8,0 -8,0 -15,0 -23,0 8,0 15,0 23,0 3,0 5,0 8,0z"/>
   <path class="fil2" d="M612 1977c-51,17 -86,32 -100,46 -36,35 -33,85 9,153 19,67 48,106 90,106 116,39 286,-17 429,-26 119,-8 219,33 327,25 107,-3 201,-27 319,-27 166,2 288,61 454,17 56,-30 38,-61 72,-110 63,-105 12,-158 -105,-185 25,-4 49,-10 73,-19 -84,-15 -134,-40 -152,-73 103,-27 197,-75 264,-182 -113,78 -285,64 -476,64 -50,-3 -93,16 -131,57 -45,76 -82,79 -112,118 -32,37 -27,74 14,103l5 -23c-47,-69 54,-72 79,-73 79,-5 163,5 250,22 34,6 68,10 101,11 210,23 229,126 68,104 -135,-17 -276,-52 -413,-43 -127,5 -214,26 -328,29 -105,-9 -188,-27 -314,-27 -147,-3 -193,49 -451,38 -59,-5 -85,-64 22,-82l87 -13c108,5 219,-22 335,-41 66,-7 157,-2 109,78l7 15c64,-70 9,-105 -77,-173 -35,-49 -66,-91 -117,-98 -197,6 -285,65 -507,-55 42,90 134,146 259,177 -24,33 -74,56 -142,73 17,6 34,11 52,14zm-41 256l10 -96 71 7 -1 17 -52 -6 -2 21 48 5 -2 17 -48 -5 -3 26 54 5 -2 16 -73 -7zm84 -25l18 -3c2,7 4,11 8,14 4,3 9,4 14,4 7,-1 11,-2 14,-5 3,-3 5,-6 5,-9 0,-3 -1,-5 -3,-6 -1,-2 -3,-3 -7,-4 -2,-1 -7,-2 -16,-3 -10,-2 -18,-5 -22,-9 -6,-5 -10,-11 -10,-19 0,-5 1,-9 3,-14 3,-4 7,-8 12,-10 5,-3 11,-4 19,-4 12,-1 21,1 28,6 6,5 9,12 10,21l-19 2c-1,-5 -3,-9 -6,-11 -3,-2 -7,-3 -13,-2 -5,0 -10,1 -13,4 -2,1 -3,3 -2,6 0,2 1,4 3,6 2,2 8,3 18,5 10,2 17,4 21,6 5,2 9,5 12,9 2,4 4,9 4,15 0,6 -1,11 -4,16 -2,5 -7,9 -12,12 -6,2 -13,4 -21,4 -12,1 -22,-1 -28,-7 -7,-5 -12,-13 -13,-24zm118 23l-10 -80 -29 4 -2 -17 77 -9 2 16 -29 4 10 79 -19 3zm135 -21l-21 3 -11 -20 -38 5 -5 23 -21 3 24 -101 21 -3 51 90zm-41 -33l-18 -33 -8 37 26 -4zm41 -65l35 -4c8,-1 15,-1 19,0 6,1 11,4 15,7 5,4 8,9 11,15 3,6 5,13 6,22 0,8 0,15 -1,21 -2,7 -5,13 -9,18 -3,4 -7,7 -12,9 -5,2 -10,3 -17,4l-37 4 -10 -96zm21 14l7 64 14 -2c6,0 10,-1 12,-2 3,-1 5,-3 7,-5 2,-2 4,-5 4,-10 1,-4 1,-10 0,-17 0,-8 -2,-13 -3,-17 -2,-4 -4,-7 -7,-9 -2,-2 -5,-3 -9,-4 -3,0 -8,0 -16,1l-9 1zm83 24c1,-9 2,-18 5,-24 3,-5 6,-9 10,-13 3,-4 8,-7 12,-9 6,-2 13,-3 21,-3 14,0 26,5 34,14 8,9 12,21 12,37 0,15 -5,27 -13,36 -9,9 -20,13 -34,13 -15,-1 -26,-5 -34,-14 -9,-9 -13,-21 -13,-37zm21 0c-1,11 2,19 7,25 5,6 11,9 19,9 8,0 14,-3 19,-8 5,-6 8,-14 8,-25 0,-11 -2,-19 -7,-25 -5,-6 -11,-8 -19,-9 -8,0 -15,3 -20,8 -5,6 -7,14 -7,25zm138 -38l36 5c7,1 13,2 17,4 6,3 10,6 14,11 3,5 5,10 7,17 1,6 1,14 0,23 -2,8 -4,14 -6,20 -4,6 -8,12 -13,15 -4,3 -9,5 -15,6 -4,1 -10,1 -17,0l-36 -5 13 -96zm17 19l-9 63 15 2c5,1 9,1 12,1 3,0 6,-1 8,-3 2,-2 4,-4 6,-9 2,-4 4,-9 5,-17 1,-7 1,-13 0,-17 -1,-4 -2,-8 -4,-10 -2,-3 -5,-5 -8,-6 -3,-1 -8,-2 -16,-3l-9 -1zm65 44c0,-10 2,-18 5,-24 3,-5 6,-10 10,-13 4,-4 8,-7 13,-8 6,-2 13,-3 21,-3 14,1 25,6 33,15 8,9 12,22 11,37 -1,16 -6,28 -15,36 -8,9 -20,12 -34,12 -14,-1 -26,-6 -34,-15 -8,-9 -11,-22 -10,-37zm20 0c-1,11 1,20 6,26 5,6 11,9 19,9 7,1 14,-2 19,-7 5,-6 8,-14 9,-25 1,-11 -1,-19 -6,-25 -5,-6 -11,-9 -19,-9 -8,-1 -15,2 -20,7 -5,5 -8,13 -8,24zm145 46l-7 -80 -29 3 -1 -17 76 -6 2 16 -29 2 7 80 -19 2zm49 -53c-1,-10 0,-19 2,-26 2,-5 4,-9 8,-14 3,-4 7,-7 11,-10 6,-3 13,-5 21,-6 14,-1 25,2 35,10 9,8 15,20 16,35 2,16 -1,28 -8,38 -8,10 -19,15 -33,17 -14,1 -26,-2 -35,-10 -10,-8 -15,-19 -17,-34zm20 -3c1,11 5,19 10,24 6,5 13,7 20,6 8,-1 14,-4 19,-10 4,-6 6,-15 4,-26 -1,-11 -4,-19 -9,-24 -6,-5 -13,-7 -21,-6 -8,1 -14,4 -18,10 -4,6 -6,15 -5,26zm153 -2l19 5c-2,11 -7,19 -13,24 -7,6 -15,9 -26,9 -12,1 -23,-3 -32,-11 -8,-9 -13,-20 -14,-36 -1,-16 3,-28 10,-38 8,-9 19,-14 32,-15 12,0 22,3 30,9 4,4 8,10 10,18l-19 5c-1,-5 -4,-9 -7,-11 -4,-3 -9,-4 -14,-4 -7,0 -13,3 -17,9 -4,5 -6,13 -5,25 1,12 3,21 8,26 5,5 10,7 17,6 6,0 10,-2 13,-5 4,-4 6,-9 8,-16zm124 37l-21 -1 -8 -22 -38 -1 -9 21 -21 0 41 -95 21 0 35 98zm-34 -39l-12 -37 -15 36 27 1zm45 41l12 -96 18 2 32 69 8 -64 18 2 -12 96 -20 -2 -31 -67 -7 62 -18 -2zm117 15l11 -79 -28 -4 2 -16 76 10 -2 17 -28 -4 -12 79 -19 -3zm60 9l11 -96 19 2 -10 96 -20 -2zm39 5l1 -97 19 0 39 66 1 -65 18 0 -2 97 -19 0 -38 -64 -1 63 -18 0zm88 -31l18 -4c2,6 5,10 9,12 4,3 9,4 15,3 6,-1 10,-3 13,-6 3,-3 4,-6 3,-10 0,-2 -1,-4 -2,-5 -2,-2 -4,-3 -8,-4 -2,0 -8,-1 -16,-2 -11,-1 -18,-3 -23,-6 -7,-4 -10,-10 -12,-18 0,-5 1,-10 3,-14 2,-5 5,-9 10,-12 5,-2 11,-4 19,-6 12,-1 21,0 28,5 7,4 11,11 12,19l-19 4c-1,-5 -4,-8 -7,-10 -3,-2 -7,-2 -12,-2 -6,1 -10,3 -13,6 -2,2 -3,4 -2,6 0,2 1,4 3,6 3,1 9,3 19,3 10,1 17,3 22,4 5,2 9,5 12,9 3,3 5,8 6,14 1,6 0,11 -3,16 -2,6 -6,10 -11,13 -5,3 -12,5 -20,6 -12,2 -22,0 -29,-4 -8,-5 -13,-12 -15,-23zm-308 -311l-11 -1 3 -42c-4,3 -9,6 -15,7l1 -10c3,-1 6,-2 9,-5 4,-2 7,-5 8,-8l9 0 -4 59zm34 -10l10 1c0,2 1,4 2,5 1,1 2,2 4,2 2,1 4,0 6,-2 2,-2 4,-6 5,-13 -3,3 -7,4 -11,4 -4,-1 -8,-3 -11,-7 -3,-4 -3,-9 -3,-15 1,-6 4,-10 8,-13 4,-3 9,-4 14,-3 6,0 10,3 13,9 3,5 4,12 2,23 -1,10 -4,18 -9,22 -5,4 -10,5 -16,4 -5,0 -8,-2 -11,-5 -2,-3 -3,-7 -3,-12zm28 -20c1,-3 1,-6 -1,-9 -1,-2 -3,-3 -5,-3 -2,-1 -4,0 -5,1 -2,2 -3,4 -4,8 0,4 0,6 1,8 1,2 3,4 5,4 2,0 4,0 6,-2 2,-1 3,-4 3,-7zm42 14c-3,-2 -5,-4 -6,-6 -1,-3 -1,-5 -1,-8 1,-4 3,-7 6,-10 4,-2 8,-3 14,-2 5,1 9,3 12,6 3,3 4,7 3,11 0,3 -1,5 -3,7 -2,2 -4,3 -7,4 3,2 6,4 7,7 1,2 2,5 1,9 0,5 -3,9 -7,12 -4,3 -8,4 -14,3 -5,-1 -9,-3 -13,-6 -3,-4 -5,-8 -4,-14 1,-3 2,-6 4,-8 2,-3 4,-5 8,-5zm4 -11c-1,2 0,4 1,5 1,2 3,2 5,3 2,0 4,0 5,-2 1,-1 2,-2 3,-4 0,-3 -1,-4 -2,-6 -1,-1 -2,-2 -4,-2 -2,-1 -4,0 -6,1 -1,1 -2,3 -2,5zm-5 24c0,3 0,6 2,8 1,2 3,3 5,3 2,0 4,0 6,-2 2,-1 3,-3 3,-6 1,-3 0,-5 -1,-7 -1,-2 -3,-3 -5,-3 -3,-1 -5,0 -7,2 -1,1 -2,3 -3,5zm46 11l11 -1c0,2 1,3 2,5 1,1 3,1 5,1 2,0 4,-1 6,-3 1,-2 2,-6 3,-13 -3,3 -7,5 -11,5 -4,0 -8,-2 -12,-6 -3,-3 -4,-8 -4,-14 0,-6 2,-10 5,-14 4,-4 8,-5 14,-5 6,0 10,2 14,7 4,5 6,12 6,23 -1,10 -3,18 -7,23 -4,4 -9,7 -15,6 -5,0 -9,-1 -11,-3 -3,-3 -5,-7 -6,-11zm26 -24c0,-4 -1,-7 -2,-9 -2,-2 -4,-3 -6,-3 -2,0 -4,1 -5,2 -2,2 -2,5 -2,8 0,4 0,7 2,9 1,2 3,2 5,3 2,0 4,-1 6,-3 1,-2 2,-4 2,-7zm-1148 42l-11 0 -1 -42c-4,3 -9,6 -14,8l0 -10c2,-1 6,-3 9,-5 3,-3 6,-6 7,-10l9 0 1 59zm10 -46c0,-5 1,-8 3,-11 2,-3 6,-5 10,-5 4,0 7,1 10,3 3,3 5,6 5,11 0,4 -1,8 -3,11 -2,3 -5,4 -10,5 -4,0 -7,-1 -10,-3 -3,-3 -4,-6 -5,-11zm9 -1c0,3 1,5 2,7 1,1 2,1 4,1 1,0 3,-1 3,-2 1,-1 2,-4 1,-6 0,-3 -1,-5 -2,-7 -1,-1 -2,-1 -4,-1 -1,0 -2,1 -3,2 -1,1 -1,4 -1,6zm65 -21l12 -2 5 37c1,5 1,8 0,11 0,4 -2,7 -5,9 -2,3 -6,4 -11,5 -6,1 -10,0 -14,-3 -3,-3 -6,-7 -6,-13l10 -3c1,3 2,5 3,7 1,1 3,2 6,2 3,-1 4,-2 5,-3 1,-2 1,-5 1,-10l-6 -37zm84 44l-13 2 -7 -12 -23 4 -2 14 -13 2 13 -61 12 -2 33 53zm-25 -19l-12 -20 -4 23 16 -3zm31 18l-8 -58 12 -2 29 36 -6 -39 11 -1 8 57 -12 2 -28 -34 5 37 -11 2z"/>
   <path class="fil3" d="M873 2278c56,74 164,109 322,104 21,-1 54,-8 92,-12 -62,38 -107,83 -132,125l65 -7 36 -60c29,-35 67,-51 105,-57 39,6 77,22 106,57l36 60 65 7c-26,-42 -70,-87 -132,-125 38,4 71,11 91,12 163,5 272,-32 328,-111 -14,-1 -28,-4 -41,-6 -63,32 -236,3 -331,31 -45,9 -85,22 -122,37 -36,-15 -76,-28 -121,-37 -89,-26 -248,-2 -319,-25 -16,2 -32,5 -48,7z"/>
   <path class="fil2" d="M696 669c103,-43 218,-81 354,-109 16,-52 -37,-41 -79,-45 -61,-1 -70,-37 18,-71 297,-117 525,-100 793,26 69,34 -1,39 -42,44 -17,3 -89,9 -60,50 111,18 227,56 345,106 -14,-31 -37,-64 -76,-97 38,-9 81,-15 131,-15 -75,-34 -153,-64 -234,-85 -9,-34 63,-49 5,-107 -233,-141 -663,-192 -977,-4 -37,71 2,65 6,106 -64,19 -141,46 -222,78 42,4 85,11 127,22 -32,23 -61,58 -89,101zm268 -268l12 -1c1,7 0,13 -2,17 -3,5 -7,9 -13,11 -7,4 -15,4 -22,1 -7,-3 -12,-9 -16,-18 -4,-9 -5,-17 -3,-25 3,-7 8,-12 16,-16 7,-3 13,-3 19,-1 4,1 7,4 11,8l-10 7c-2,-2 -5,-4 -8,-5 -2,-1 -5,0 -8,1 -4,2 -7,5 -8,9 -2,4 -1,10 2,16 3,7 7,12 11,14 4,1 7,1 12,0 3,-2 5,-4 6,-7 1,-2 2,-6 1,-11zm18 -16c-2,-6 -3,-11 -3,-15 0,-4 1,-7 3,-10 1,-3 3,-6 5,-8 3,-3 7,-5 11,-7 9,-3 16,-3 24,0 7,3 12,9 15,19 4,9 4,17 1,24 -3,7 -8,12 -17,16 -8,3 -16,3 -23,0 -7,-4 -12,-10 -16,-19zm12 -5c2,7 6,11 10,13 4,2 9,3 13,1 5,-2 8,-5 10,-9 1,-5 1,-10 -2,-17 -2,-7 -5,-11 -9,-13 -5,-2 -9,-2 -14,0 -5,1 -8,4 -9,9 -2,4 -2,10 1,16zm102 0l-7 -24 -31 -28 13 -4 21 19 7 -27 14 -4 -12 40 7 25 -12 3zm56 -15l-35 -54 13 -3 25 40 4 -47 13 -3 -7 64 -13 3zm57 -13l-4 -25 -27 -32 14 -2 18 22 10 -26 14 -2 -16 38 4 25 -13 2zm60 -40c-1,-6 0,-12 2,-16 1,-3 2,-6 5,-9 2,-2 4,-4 7,-6 4,-2 8,-3 13,-3 9,-1 16,1 22,7 6,5 9,12 10,22 1,10 -2,18 -6,24 -5,6 -12,9 -21,10 -9,0 -17,-2 -23,-7 -5,-5 -8,-13 -9,-22zm12 -2c1,7 3,12 6,16 4,3 8,5 13,4 5,0 9,-2 12,-6 2,-4 4,-9 3,-16 0,-7 -2,-12 -5,-15 -4,-4 -8,-5 -13,-5 -5,1 -9,3 -12,6 -3,4 -4,9 -4,16zm61 27l0 -61 26 0c6,0 11,0 14,2 3,1 5,3 7,5 2,3 3,6 3,10 0,5 -2,8 -5,11 -2,3 -6,5 -12,6 3,2 5,3 7,5 2,2 4,5 7,10l7 12 -14 0 -9 -13c-3,-5 -6,-8 -7,-9 -1,-2 -2,-2 -3,-3 -2,0 -4,-1 -7,-1l-2 0 0 26 -12 0zm12 -35l9 0c6,0 10,-1 11,-1 2,-1 3,-1 4,-3 0,-1 1,-2 1,-4 0,-2 -1,-4 -2,-5 -1,-1 -2,-2 -4,-3 -1,0 -4,0 -10,0l-9 0 0 16zm51 34l2 -61 45 2 0 10 -33 -1 -1 14 31 1 0 10 -31 -1 -1 16 35 2 -1 10 -46 -2zm80 6l8 -61 26 4c6,0 11,1 14,3 2,1 4,4 6,7 1,3 2,6 1,9 0,5 -2,9 -5,11 -3,3 -7,4 -13,4 3,2 5,4 6,6 2,2 4,6 6,11l6 13 -15 -2 -7 -14c-2,-5 -4,-9 -5,-10 -1,-1 -2,-2 -4,-3 -1,-1 -3,-1 -6,-1l-2 -1 -3 26 -13 -2zm17 -33l9 1c6,0 10,1 11,0 2,0 3,-1 4,-2 1,-1 1,-2 2,-4 0,-2 0,-4 -1,-5 -1,-2 -3,-3 -5,-3 -1,-1 -4,-1 -9,-2l-9 -1 -2 16zm46 42l11 -60 45 9 -2 10 -32 -6 -3 13 30 6 -2 10 -30 -6 -3 16 33 7 -2 10 -45 -9zm71 15l12 -50 -18 -4 3 -10 47 12 -2 10 -18 -5 -12 50 -12 -3zm85 23l-13 -4 -1 -15 -24 -6 -8 12 -13 -4 40 -52 12 3 7 66zm-15 -30l-2 -24 -14 20 16 4zm23 32l21 -57 18 7 -5 43 25 -35 18 6 -22 57 -11 -4 17 -45 -28 41 -11 -4 5 -50 -17 45 -10 -4zm118 49l-13 -6 1 -15 -22 -10 -11 11 -11 -5 46 -46 12 5 -2 66zm-11 -32l1 -24 -17 18 16 6z"/>
   <path class="fil4" d="M571 2233l10 -96 71 7 -1 17 -52 -6 -2 21 48 5 -2 17 -48 -5 -3 26 54 5 -2 16 -73 -7zm84 -25l18 -3c2,7 4,11 8,14 4,3 9,4 14,4 7,-1 11,-2 14,-5 3,-3 5,-6 5,-9 0,-3 -1,-5 -3,-6 -1,-2 -3,-3 -7,-4 -2,-1 -7,-2 -16,-3 -10,-2 -18,-5 -22,-9 -6,-5 -10,-11 -10,-19 0,-5 1,-9 3,-14 3,-4 7,-8 12,-10 5,-3 11,-4 19,-4 12,-1 21,1 28,6 6,5 9,12 10,21l-19 2c-1,-5 -3,-9 -6,-11 -3,-2 -7,-3 -13,-2 -5,0 -10,1 -13,4 -2,1 -3,3 -2,6 0,2 1,4 3,6 2,2 8,3 18,5 10,2 17,4 21,6 5,2 9,5 12,9 2,4 4,9 4,15 0,6 -1,11 -4,16 -2,5 -7,9 -12,12 -6,2 -13,4 -21,4 -12,1 -22,-1 -28,-7 -7,-5 -12,-13 -13,-24zm118 23l-10 -80 -29 4 -2 -17 77 -9 2 16 -29 4 10 79 -19 3zm135 -21l-21 3 -11 -20 -38 5 -5 23 -21 3 24 -101 21 -3 51 90zm-41 -33l-18 -33 -8 37 26 -4zm41 -65l35 -4c8,-1 15,-1 19,0 6,1 11,4 15,7 5,4 8,9 11,15 3,6 5,13 6,22 0,8 0,15 -1,21 -2,7 -5,13 -9,18 -3,4 -7,7 -12,9 -5,2 -10,3 -17,4l-37 4 -10 -96zm21 14l7 64 14 -2c6,0 10,-1 12,-2 3,-1 5,-3 7,-5 2,-2 4,-5 4,-10 1,-4 1,-10 0,-17 0,-8 -2,-13 -3,-17 -2,-4 -4,-7 -7,-9 -2,-2 -5,-3 -9,-4 -3,0 -8,0 -16,1l-9 1zm83 24c1,-9 2,-18 5,-24 3,-5 6,-9 10,-13 3,-4 8,-7 12,-9 6,-2 13,-3 21,-3 14,0 26,5 34,14 8,9 12,21 12,37 0,15 -5,27 -13,36 -9,9 -20,13 -34,13 -15,-1 -26,-5 -34,-14 -9,-9 -13,-21 -13,-37zm21 0c-1,11 2,19 7,25 5,6 11,9 19,9 8,0 14,-3 19,-8 5,-6 8,-14 8,-25 0,-11 -2,-19 -7,-25 -5,-6 -11,-8 -19,-9 -8,0 -15,3 -20,8 -5,6 -7,14 -7,25zm138 -38l36 5c7,1 13,2 17,4 6,3 10,6 14,11 3,5 5,10 7,17 1,6 1,14 0,23 -2,8 -4,14 -6,20 -4,6 -8,12 -13,15 -4,3 -9,5 -15,6 -4,1 -10,1 -17,0l-36 -5 13 -96zm17 19l-9 63 15 2c5,1 9,1 12,1 3,0 6,-1 8,-3 2,-2 4,-4 6,-9 2,-4 4,-9 5,-17 1,-7 1,-13 0,-17 -1,-4 -2,-8 -4,-10 -2,-3 -5,-5 -8,-6 -3,-1 -8,-2 -16,-3l-9 -1zm65 44c0,-10 2,-18 5,-24 3,-5 6,-10 10,-13 4,-4 8,-7 13,-8 6,-2 13,-3 21,-3 14,1 25,6 33,15 8,9 12,22 11,37 -1,16 -6,28 -15,36 -8,9 -20,12 -34,12 -14,-1 -26,-6 -34,-15 -8,-9 -11,-22 -10,-37zm20 0c-1,11 1,20 6,26 5,6 11,9 19,9 7,1 14,-2 19,-7 5,-6 8,-14 9,-25 1,-11 -1,-19 -6,-25 -5,-6 -11,-9 -19,-9 -8,-1 -15,2 -20,7 -5,5 -8,13 -8,24zm145 46l-7 -80 -29 3 -1 -17 76 -6 2 16 -29 2 7 80 -19 2zm49 -53c-1,-10 0,-19 2,-26 2,-5 4,-9 8,-14 3,-4 7,-7 11,-10 6,-3 13,-5 21,-6 14,-1 25,2 35,10 9,8 15,20 16,35 2,16 -1,28 -8,38 -8,10 -19,15 -33,17 -14,1 -26,-2 -35,-10 -10,-8 -15,-19 -17,-34zm20 -3c1,11 5,19 10,24 6,5 13,7 20,6 8,-1 14,-4 19,-10 4,-6 6,-15 4,-26 -1,-11 -4,-19 -9,-24 -6,-5 -13,-7 -21,-6 -8,1 -14,4 -18,10 -4,6 -6,15 -5,26zm153 -2l19 5c-2,11 -7,19 -13,24 -7,6 -15,9 -26,9 -12,1 -23,-3 -32,-11 -8,-9 -13,-20 -14,-36 -1,-16 3,-28 10,-38 8,-9 19,-14 32,-15 12,0 22,3 30,9 4,4 8,10 10,18l-19 5c-1,-5 -4,-9 -7,-11 -4,-3 -9,-4 -14,-4 -7,0 -13,3 -17,9 -4,5 -6,13 -5,25 1,12 3,21 8,26 5,5 10,7 17,6 6,0 10,-2 13,-5 4,-4 6,-9 8,-16zm124 37l-21 -1 -8 -22 -38 -1 -9 21 -21 0 41 -95 21 0 35 98zm-34 -39l-12 -37 -15 36 27 1zm45 41l12 -96 18 2 32 69 8 -64 18 2 -12 96 -20 -2 -31 -67 -7 62 -18 -2zm117 15l11 -79 -28 -4 2 -16 76 10 -2 17 -28 -4 -12 79 -19 -3zm60 9l11 -96 19 2 -10 96 -20 -2zm39 5l1 -97 19 0 39 66 1 -65 18 0 -2 97 -19 0 -38 -64 -1 63 -18 0zm88 -31l18 -4c2,6 5,10 9,12 4,3 9,4 15,3 6,-1 10,-3 13,-6 3,-3 4,-6 3,-10 0,-2 -1,-4 -2,-5 -2,-2 -4,-3 -8,-4 -2,0 -8,-1 -16,-2 -11,-1 -18,-3 -23,-6 -7,-4 -10,-10 -12,-18 0,-5 1,-10 3,-14 2,-5 5,-9 10,-12 5,-2 11,-4 19,-6 12,-1 21,0 28,5 7,4 11,11 12,19l-19 4c-1,-5 -4,-8 -7,-10 -3,-2 -7,-2 -12,-2 -6,1 -10,3 -13,6 -2,2 -3,4 -2,6 0,2 1,4 3,6 3,1 9,3 19,3 10,1 17,3 22,4 5,2 9,5 12,9 3,3 5,8 6,14 1,6 0,11 -3,16 -2,6 -6,10 -11,13 -5,3 -12,5 -20,6 -12,2 -22,0 -29,-4 -8,-5 -13,-12 -15,-23zm-308 -311l-11 -1 3 -42c-4,3 -9,6 -15,7l1 -10c3,-1 6,-2 9,-5 4,-2 7,-5 8,-8l9 0 -4 59zm34 -10l10 1c0,2 1,4 2,5 1,1 2,2 4,2 2,1 4,0 6,-2 2,-2 4,-6 5,-13 -3,3 -7,4 -11,4 -4,-1 -8,-3 -11,-7 -3,-4 -3,-9 -3,-15 1,-6 4,-10 8,-13 4,-3 9,-4 14,-3 6,0 10,3 13,9 3,5 4,12 2,23 -1,10 -4,18 -9,22 -5,4 -10,5 -16,4 -5,0 -8,-2 -11,-5 -2,-3 -3,-7 -3,-12zm28 -20c1,-3 1,-6 -1,-9 -1,-2 -3,-3 -5,-3 -2,-1 -4,0 -5,1 -2,2 -3,4 -4,8 0,4 0,6 1,8 1,2 3,4 5,4 2,0 4,0 6,-2 2,-1 3,-4 3,-7zm42 14c-3,-2 -5,-4 -6,-6 -1,-3 -1,-5 -1,-8 1,-4 3,-7 6,-10 4,-2 8,-3 14,-2 5,1 9,3 12,6 3,3 4,7 3,11 0,3 -1,5 -3,7 -2,2 -4,3 -7,4 3,2 6,4 7,7 1,2 2,5 1,9 0,5 -3,9 -7,12 -4,3 -8,4 -14,3 -5,-1 -9,-3 -13,-6 -3,-4 -5,-9 -4,-14 1,-3 2,-6 4,-8 2,-3 4,-5 8,-5zm4 -11c-1,2 0,4 1,5 1,2 3,2 5,3 2,0 4,0 5,-2 1,-1 2,-2 3,-4 0,-3 -1,-4 -2,-6 -1,-1 -2,-2 -4,-2 -2,-1 -4,0 -6,1 -1,1 -2,3 -2,5zm-5 24c0,3 0,6 2,8 1,2 3,3 5,3 2,0 4,0 6,-2 2,-1 3,-3 3,-6 1,-3 0,-5 -1,-7 -1,-2 -3,-3 -5,-3 -3,-1 -5,0 -7,2 -1,1 -2,3 -3,5zm46 11l11 -1c0,2 1,3 2,5 1,1 3,1 5,1 2,0 4,-1 6,-3 1,-2 2,-6 3,-13 -3,3 -7,5 -11,5 -4,0 -8,-2 -12,-6 -3,-3 -4,-8 -4,-14 0,-6 2,-10 5,-14 4,-4 8,-5 14,-5 6,0 10,2 14,7 4,5 6,12 6,23 -1,10 -3,18 -7,23 -4,4 -9,7 -15,6 -5,0 -9,-1 -11,-3 -3,-3 -5,-7 -6,-11zm26 -24c0,-4 -1,-7 -2,-9 -2,-2 -4,-3 -6,-3 -2,0 -4,1 -5,2 -2,2 -2,5 -2,8 0,4 0,7 2,9 1,2 3,2 5,3 2,0 4,-1 6,-3 1,-2 2,-4 2,-7zm-1148 42l-11 0 -1 -42c-4,3 -9,6 -14,8l0 -10c2,-1 6,-3 9,-5 3,-3 6,-6 7,-10l9 0 1 59zm10 -46c0,-5 1,-8 3,-11 2,-3 6,-5 10,-5 4,0 7,1 10,3 3,3 5,6 5,11 0,4 -1,8 -3,11 -2,3 -5,4 -10,5 -4,0 -7,-1 -10,-3 -3,-3 -4,-6 -5,-11zm9 -1c0,3 1,5 2,7 1,1 2,1 4,1 1,0 3,-1 3,-2 1,-1 2,-4 1,-6 0,-3 -1,-5 -2,-7 -1,-1 -2,-1 -4,-1 -1,0 -2,1 -3,2 -1,1 -1,4 -1,6zm65 -21l12 -2 5 37c1,5 1,8 0,11 0,4 -2,7 -5,9 -2,3 -6,4 -11,5 -6,1 -10,0 -14,-3 -3,-3 -6,-7 -6,-13l10 -3c1,3 2,5 3,7 1,1 3,2 6,2 3,-1 4,-2 5,-3 1,-2 1,-5 1,-10l-6 -37zm84 44l-13 2 -7 -12 -23 4 -2 14 -13 2 13 -61 12 -2 33 53zm-25 -19l-12 -20 -4 23 16 -3zm31 18l-8 -58 12 -2 29 36 -6 -39 11 -1 8 57 -12 2 -28 -34 5 37 -11 2z"/>
   <path class="fil4" d="M964 401l12 -1c1,7 0,13 -2,17 -3,5 -7,9 -13,11 -7,4 -15,4 -22,1 -7,-3 -12,-9 -16,-18 -4,-9 -5,-17 -3,-25 3,-7 8,-12 16,-16 7,-3 13,-3 19,-1 4,1 7,4 11,8l-10 7c-2,-2 -5,-4 -8,-5 -2,-1 -5,0 -8,1 -4,2 -7,5 -8,9 -2,4 -1,10 2,16 3,7 7,12 11,14 4,1 7,1 12,0 3,-2 5,-4 6,-7 1,-2 2,-6 1,-11zm18 -16c-2,-6 -3,-11 -3,-15 0,-4 1,-7 3,-10 1,-3 3,-6 5,-8 3,-3 7,-5 11,-7 9,-3 16,-3 24,0 7,3 12,9 15,19 4,9 4,17 1,24 -3,7 -8,12 -17,16 -8,3 -16,3 -23,0 -7,-4 -12,-10 -16,-19zm12 -5c2,7 6,11 10,13 4,2 9,3 13,1 5,-2 8,-5 10,-9 1,-5 1,-10 -2,-17 -2,-7 -5,-11 -9,-13 -5,-2 -9,-2 -14,0 -5,1 -8,4 -9,9 -2,4 -2,10 1,16zm102 0l-7 -24 -31 -28 13 -4 21 19 7 -27 14 -4 -12 40 7 25 -12 3zm56 -15l-35 -54 13 -3 25 40 4 -47 13 -3 -7 64 -13 3zm57 -13l-4 -25 -27 -32 14 -2 18 22 10 -26 14 -2 -16 38 4 25 -13 2zm60 -40c-1,-6 0,-12 2,-16 1,-3 2,-6 5,-9 2,-2 4,-4 7,-6 4,-2 8,-3 13,-3 9,-1 16,1 22,7 6,5 9,12 10,22 1,10 -2,18 -6,24 -5,6 -12,9 -21,10 -9,0 -17,-2 -23,-7 -5,-5 -8,-13 -9,-22zm12 -2c1,7 3,12 6,16 4,3 8,5 13,4 5,0 9,-2 12,-6 2,-4 4,-9 3,-16 0,-7 -2,-12 -5,-15 -4,-4 -8,-5 -13,-5 -5,1 -9,3 -12,6 -3,4 -4,9 -4,16zm61 27l0 -61 26 0c6,0 11,0 14,2 3,1 5,3 7,5 2,3 3,6 3,10 0,5 -2,8 -5,11 -2,3 -6,5 -12,6 3,2 5,3 7,5 2,2 4,5 7,10l7 12 -14 0 -9 -13c-3,-5 -6,-8 -7,-9 -1,-2 -2,-2 -3,-3 -2,0 -4,-1 -7,-1l-2 0 0 26 -12 0zm12 -35l9 0c6,0 10,-1 11,-1 2,-1 3,-1 4,-3 0,-1 1,-2 1,-4 0,-2 -1,-4 -2,-5 -1,-1 -2,-2 -4,-3 -1,0 -4,0 -10,0l-9 0 0 16zm51 34l2 -61 45 2 0 10 -33 -1 -1 14 31 1 0 10 -31 -1 -1 16 35 2 -1 10 -46 -2zm80 6l8 -61 26 4c6,0 11,1 14,3 2,1 4,4 6,7 1,3 2,6 1,9 0,5 -2,9 -5,11 -3,3 -7,4 -13,4 3,2 5,4 6,6 2,2 4,6 6,11l6 13 -15 -2 -7 -14c-2,-5 -4,-9 -5,-10 -1,-1 -2,-2 -4,-3 -1,-1 -3,-1 -6,-1l-2 -1 -3 26 -13 -2zm17 -33l9 1c6,0 10,1 11,0 2,0 3,-1 4,-2 1,-1 1,-2 2,-4 0,-2 0,-4 -1,-5 -1,-2 -3,-3 -5,-3 -1,-1 -4,-1 -9,-2l-9 -1 -2 16zm46 42l11 -60 45 9 -2 10 -32 -6 -3 13 30 6 -2 10 -30 -6 -3 16 33 7 -2 10 -45 -9zm71 15l12 -50 -18 -4 3 -10 47 12 -2 10 -18 -5 -12 50 -12 -3zm85 23l-13 -4 -1 -15 -24 -6 -8 12 -13 -4 40 -52 12 3 7 66zm-15 -30l-2 -24 -14 20 16 4zm23 32l21 -57 18 7 -5 43 25 -35 18 6 -22 57 -11 -4 17 -45 -28 41 -11 -4 5 -50 -17 45 -10 -4zm118 49l-13 -6 1 -15 -22 -10 -11 11 -11 -5 46 -46 12 5 -2 66zm-11 -32l1 -24 -17 18 16 6z"/>
  </g>
 </g>
</svg>